<svg width="200" height="200" viewBox="0 0 700 700" xmlns="http://www.w3.org/2000/svg">
  <path
    d="M541.24 333.2c-3.922 0-7.746.652-11.199 1.96l-79.52 28.747c.465-2.332.652-4.668.652-7.094 0-21.652-17.547-39.199-39.199-39.199h-67.012l-35.746-21.465c-9.238-5.508-19.785-8.398-30.332-8.398h-54.602v152.88l115.45 26.879a58.51 58.51 0 0 0 18.762 3.078c5.04 0 10.172-.653 15.215-2.055l1.121-.281 178.55-71.773c8.309-3.266 14.934-9.988 18.293-18.293 3.36-8.399 3.079-17.547-.652-25.762-5.234-11.66-16.992-19.223-29.78-19.223zM205.61 451.36V272.25c0-5.133-4.2-9.332-9.332-9.332h-60.949c-5.133 0-9.332 4.2-9.332 9.332v179.11c0 5.133 4.2 9.332 9.332 9.332h60.945c5.137 0 9.336-4.2 9.336-9.332zm97.72-259.28c0 56.652 46.012 102.67 102.67 102.67 56.652 0 102.67-46.012 102.67-102.67 0-56.559-46.012-102.67-102.67-102.67-56.652.004-102.67 46.109-102.67 102.67zm112 55.16c0 5.133-4.2 9.332-9.332 9.332s-9.332-4.2-9.332-9.332v-4.48c0-5.133 4.2-9.332 9.332-9.332s9.332 4.199 9.332 9.332zm24.359-91.465c2.332 13.16-2.895 26.133-13.625 33.879-6.813 4.856-10.734 11.762-10.734 18.855v3.078c0 5.133-4.2 9.332-9.332 9.332s-9.332-4.2-9.332-9.332v-3.078c0-13.16 6.719-25.574 18.387-34.066 4.852-3.547 7.281-9.52 6.16-15.492-1.027-6.16-6.254-11.293-12.414-12.414-4.761-.84-9.332.375-12.879 3.36-3.547 2.988-5.601 7.28-5.601 11.944 0 5.133-4.2 9.332-9.332 9.332-5.133 0-9.332-4.199-9.332-9.332 0-10.172 4.48-19.69 12.227-26.227 7.746-6.535 18.012-9.238 28.094-7.464 13.902 2.425 25.289 13.812 27.715 27.625z" />
</svg>